<svg id="Layer_2" data-name="Layer 2" xmlns="http://www.w3.org/2000/svg" viewBox="0 0 643.05 353.44"><defs><style>.cls-1{fill:none;stroke-width:3px;}.cls-1,.cls-2{stroke:#fff;stroke-miterlimit:10;}.cls-2{fill:#fff;}</style></defs><path class="cls-1" d="M195.23,533.68c4.28.31,22.32-8.87,22.32-8.87l17.12-4,8.87-1.22c8.87-1.22,22.32-8.56,22.32-8.56s3.67-5.5,4.59-11-15.9-4.89-20.79-4.28-31.8,9.48-31.8,9.48a250.72,250.72,0,0,1-34.55-4c-17.12-3.36-50.75,16.94-50.75,16.94l-48,76.31s49.22-42.5,83.16-41l33.94,1.53s26.81,5.2,33,3.36l6.16-1.83,14.37-6.73,38.22,1.22L346,530s3.36-11-13.45-7l-16.82,4-25.38,4.89-37.61-3.67" transform="translate(-77.96 -248.78)"/><path class="cls-1" d="M302.54,526.65s16.82-10.09,25.68-21.4,8.87-11.31,8.87-11.31-4-9.64-17.27,1.45l-13.3,11.09s-20.79,15.29-25.68,15" transform="translate(-77.96 -248.78)"/><path class="cls-1" d="M313.27,498.52l6.39-14.37s-7.34-7.64-14.37,3.06l-7,10.7-1.83,3.36L280.84,515" transform="translate(-77.96 -248.78)"/><path class="cls-1" d="M286,508.35l2.75-20.83s-9.48-5.5-11.62,6.42L275,505.86l-10.7,12.36H249.37" transform="translate(-77.96 -248.78)"/><line class="cls-1" x1="208.75" y1="254.54" x2="207.56" y2="262.13"/><line class="cls-1" x1="223.27" y1="244.64" x2="218.47" y2="252.5"/><line class="cls-1" x1="238.24" y1="243.18" x2="234.8" y2="252.5"/><line class="cls-1" x1="252.64" y1="253.46" x2="245.15" y2="262.13"/><line class="cls-1" x1="227.38" y1="276.11" x2="218.47" y2="281.9"/><path class="cls-1" d="M299.48,250.27s23.16,74.14,11.24,108.3-27.52,54.8-37.15,63.75l-9.63,8.94s-11.69-40.82-24.76-50.45l-13.07-9.63s18.57-36.69,27.29-49.3l8.71-12.61s-27.52,31.18-34.62,44l-7.11,12.84s-23.85-13.07-38.52-18.34l-14.68-5.27,17.2,1.83s30.27-50.37,72.69-72.23Z" transform="translate(-77.96 -248.78)"/><path class="cls-1" d="M196.53,379.21s46.32,53.43,51.59,74.75l5.27,21.32-11,3.67s-1.42-26.21-12.15-48.84L219.5,407.48" transform="translate(-77.96 -248.78)"/><line class="cls-1" x1="173.55" y1="149.61" x2="182.1" y2="170.48"/><path class="cls-1" d="M218.16,465.2l-23.85-12.78-14.37-12.91s-3.67-4.59-12.76-21.4-7.11-63.79-7.11-63.79-9.78,50.34,2.14,68.69c0,0,5.81,12.54,8.87,16.2s13.76,13.21,13.76,13.21l13.45,7.27Z" transform="translate(-77.96 -248.78)"/><path class="cls-2" d="M441.87,391.72c-.7,3.4-3.1,12.8-4.11,17.1h-52l-.9-1.6c13.9-19.2,27.8-39.1,41.9-59.4h-19.7c-8.9,0-10.4.6-12.5,3.7a36.15,36.15,0,0,0-3.8,8.4l-3-.1c.5-5.2,1.7-13.9,1.9-18.3h2.6c1.1,2.4,2.3,2.3,5.3,2.3H438l.81,1.6c-13.91,19.5-27.41,38.9-41.21,59.1,3.1.2,9.6.3,16.4.3,13.1,0,16.1-.5,18.91-3.6,2.09-2.1,4.3-6,6.09-10.2Z" transform="translate(-77.96 -248.78)"/><path class="cls-2" d="M501.06,392.92c-.6,2.6-3.3,12.9-4.3,15.9h-48.6V406c9.3-.7,10-1.6,10-9.8v-39.5c0-8.9-1.1-9.4-8.6-10.1v-2.8h30.6c9.4,0,13.3-.1,14.5-.2.1,2.5.5,10,.9,15.3l-3,.5a33.31,33.31,0,0,0-3-7.6c-1.6-3.3-3.9-4-9.9-4h-9.5c-3.1,0-3.3.3-3.3,3.2v22.1H478c7.5,0,8-1.5,9.2-8.3h3.1v20.6h-3.1c-1.3-7.2-2.1-8.2-9.3-8.2h-11v19.9c0,7,2.2,7.6,7.2,7.7h9.3c6.1,0,7.1-.9,9.3-3.5,1.9-2.1,4-6.2,5.4-9.2Z" transform="translate(-77.96 -248.78)"/><path class="cls-2" d="M567.36,409.62c-1.3,0-2.4-.1-3.7-.2-7.3-.5-11.2-2.4-15.6-8.6-3.7-5.1-7.3-11.4-10.5-16.5-2-3.2-3.3-3.8-8.4-3.8h-3.5v15.7c0,8.5,1.1,9,9.1,9.8v2.8h-26.7V406c8.3-.9,9-1.3,9-9.8v-39.9c0-8.5-1.1-8.8-9-9.7v-2.8h25.5c7.3,0,12.2.9,16,3.4,4.1,2.6,6.8,7.1,6.8,13.2,0,8.6-5.5,14-12.9,17.2,1.8,3.1,6.1,9.8,9.1,14.3a91.82,91.82,0,0,0,7.9,10.3,14.39,14.39,0,0,0,7.3,4.6Zm-36.9-32.5c5.2,0,8.5-.8,11-2.9,3.9-2.9,5.5-6.9,5.5-12.3,0-10.7-7.1-14.6-14.8-14.6-2.9,0-4.6.4-5.3,1-.9.7-1.2,1.7-1.2,4.3v24.5Z" transform="translate(-77.96 -248.78)"/><path class="cls-2" d="M604.56,342.42c17.1,0,32.4,13.1,32.4,33,0,21.5-14.6,34.9-33,34.9-19.2,0-33.2-14.6-33.2-33.4C570.76,359,583.46,342.42,604.56,342.42Zm-2,3.7c-11.2,0-21.4,9.4-21.4,28.1s10.2,32.3,24.4,32.3c12.1,0,21.2-9,21.2-28.3C626.76,357.22,615.66,346.12,602.56,346.12Z" transform="translate(-77.96 -248.78)"/><path class="cls-2" d="M408,455.57c6,0,10.88,1.1,14.37,3.65,3.31,2.47,5.61,6.46,5.61,12.07,0,12.41-10.63,17.43-18.71,17.43a15.59,15.59,0,0,1-2.29-.17L401.13,487v13.26c0,7.14.6,7.31,8.42,8.16v2.38H386.09v-2.38c7.31-.77,7.65-1.28,7.65-8.33V466.36c0-7.56-.94-7.74-7.65-8.41v-2.38ZM401.13,484a15.44,15.44,0,0,0,6.21,1.11c5.69,0,12.75-2.89,12.75-13.6,0-9.35-6.12-13.09-13.26-13.09-2.47,0-4.25.42-4.76,1-.68.59-.94,1.61-.94,3.91Z" transform="translate(-77.96 -248.78)"/><path class="cls-2" d="M477.72,496.71c-.51,2.63-3.06,11.47-3.91,14.11H434.28v-2.38c7.74-.77,8.42-1.19,8.42-8.42V466.28c0-7.23-.85-7.66-7.65-8.33v-2.38h22.78V458c-6.8.67-7.74,1-7.74,8.33v34.59c0,5.19.68,6.38,5.53,6.46l6.71.09c4.34,0,5.61-.51,7.57-2.64a28.8,28.8,0,0,0,5.18-8.75Z" transform="translate(-77.96 -248.78)"/><path class="cls-2" d="M517.24,510.82v-2.38c5.53-.68,6.21-1.53,5-4.76s-2.81-7.57-4.59-12.92H499.31c-1.36,3.82-2.64,7.14-3.83,10.62-1.87,5.53-.68,6.21,6.29,7.06v2.38H482.13v-2.38c5.36-.68,6.72-1.28,9.7-8.93l17.59-44.63,2.72-.5c5.36,14.53,11.22,30.6,16.58,45.3,2.72,7.4,3.48,8.08,9.52,8.76v2.38Zm-8.5-45.31c-2.72,7.31-5.61,15.05-8.16,21.76h15.9Z" transform="translate(-77.96 -248.78)"/><path class="cls-2" d="M572.49,468.49c-1.44-5.61-3.82-11.14-11.81-11.14-6.64,0-8.93,4.85-8.93,9.27,0,5.86,3.74,8.84,10.8,12.49,10.2,5.27,14.62,9.18,14.62,17.26,0,8.92-7.74,15.72-18.7,15.72a35.47,35.47,0,0,1-13-2.8,117,117,0,0,1-2.3-12.75l2.64-.68c1.7,5.69,5.44,13.09,14.28,13.09,6.12,0,9.86-4.25,9.86-9.78,0-6.54-3.48-9.18-11-13.26-8.93-4.84-14-8.92-14-16.83,0-7.56,6.3-14.7,17.52-14.7A54.56,54.56,0,0,1,573.77,456c.34,3.06.68,6.46,1.36,12Z" transform="translate(-77.96 -248.78)"/><path class="cls-2" d="M629.1,468.91a31.69,31.69,0,0,0-2.72-7.05c-1.36-2.3-2.21-2.89-6.88-2.89H611v41.39c0,6.63.67,7.57,8.75,8.08v2.38H595v-2.38c7.91-.51,8.59-1.36,8.59-8.08V459h-7.74c-4.67,0-6,.51-7.48,3.06a38.59,38.59,0,0,0-2.8,6.88H583c.51-5.18,1-10.54,1.27-15.3h2c1.27,2,2.21,2,4.59,2h33.66c2.38,0,3.06-.34,4.34-2h2c0,4,.34,10.12.76,15.05Z" transform="translate(-77.96 -248.78)"/><path class="cls-2" d="M638.62,510.82v-2.38c7-.77,7.65-1.11,7.65-8.33V466.36c0-7.31-.68-7.65-7.65-8.41v-2.38H661.4V458c-7.06.76-7.74,1.1-7.74,8.41v33.75c0,7.31.68,7.56,7.74,8.33v2.38Z" transform="translate(-77.96 -248.78)"/><path class="cls-2" d="M720.39,497.22a106.46,106.46,0,0,1-4.68,12.83,77.34,77.34,0,0,1-15.55,2c-20.32,0-30.69-13.51-30.69-28.39,0-17.34,13.18-29.32,32.22-29.32,7.31,0,13.26,1.53,16.06,1.95.34,3.83.94,8.93,1.62,13.18l-2.64.59c-1.7-5.69-3.74-9.18-8.07-11a23.27,23.27,0,0,0-8.93-1.62c-14,0-21.42,10.37-21.42,24.4,0,16.4,8.5,26.94,22.27,26.94,8.67,0,12.92-4,17.26-12.49Z" transform="translate(-77.96 -248.78)"/></svg>