<svg id="Layer_1" data-name="Layer 1" xmlns="http://www.w3.org/2000/svg" viewBox="0 0 357.67 379.07"><defs><style>.cls-1{fill:none;stroke:#006837;stroke-miterlimit:10;stroke-width:6px;}</style></defs><path class="cls-1" d="M406.09,540.42l11.61-3.67,18.35-10.39L446.14,523l22.32-9.48,13.45-7.94L493.53,497s1.22-.31,4.58-9.18-16.51-7-29.65-2.14-47.19,13.76-47.19,13.76-1.12,0-33.53-3.67S330,518.37,330,518.37l-76.43,56.29s-8.57,16.21,0,25.07S282.26,612,282.26,612s25.69-11,37.61-18l11.92-7s41.89-18,61.15-16.51l19.26,1.53,44.94,2.75s3.67,0,14.07-5.2l10.39-5.19" transform="translate(-246.72 -235.99)"/><path class="cls-1" d="M460.81,567,521,560l13.15,1.22,66.34-33.33s5.51-14.45-11.31-9.51L572.4,523.3,566,526.36l-21.16,4.58-2.33.51L529.3,534.3l-45.56-2.75" transform="translate(-246.72 -235.99)"/><path class="cls-1" d="M544.89,529a184.66,184.66,0,0,0,28.89-32.1c14.22-20,14-25.91,14-25.91s-6.88-16.74-18.81,0L557,487.68l-2.75,2.52L517.6,517.34l-24.76,6.8" transform="translate(-246.72 -235.99)"/><path class="cls-1" d="M554.75,487.45,562.54,465s-9.4-16.51-18.11,3.44l-8.71,19.95v2.52L516,510.61" transform="translate(-246.72 -235.99)"/><path class="cls-1" d="M521,503a23.39,23.39,0,0,0,1.7-3.29c1.18-2.76,2.34-6.84,1.28-10.69-1.83-6.65-1.28-19.95-1.28-19.95s-12.93-6.88-13.62,9.4l-.69,16.28-13.76,18.34-24.3,7.11-9.56-2.9" transform="translate(-246.72 -235.99)"/><line class="cls-1" x1="273.1" y1="270.8" x2="276.89" y2="261.4"/><line class="cls-1" x1="310.72" y1="243.7" x2="306.28" y2="255.17"/><line class="cls-1" x1="300.44" y1="290.97" x2="295.77" y2="295.46"/><path class="cls-1" d="M525.08,239s23.16,74.14,11.24,108.3S508.8,402.08,499.17,411L489.54,420s-11.69-40.82-24.76-50.45l-13.07-9.63s18.57-36.69,27.29-49.3L487.71,298s-27.52,31.18-34.62,44L446,354.85s-23.85-13.07-38.52-18.34l-14.68-5.27,17.2,1.83s30.27-50.37,72.69-72.23Z" transform="translate(-246.72 -235.99)"/><path class="cls-1" d="M422.13,367.92s46.32,53.43,51.59,74.75L479,464l-11,3.67s-1.42-26.21-12.15-48.84L445.1,396.19" transform="translate(-246.72 -235.99)"/><line class="cls-1" x1="230.38" y1="151.1" x2="238.93" y2="171.97"/><path class="cls-1" d="M443.76,453.91l-23.85-12.78-14.37-12.91s-3.67-4.59-12.76-21.4S385.67,343,385.67,343s-9.78,50.34,2.14,68.69c0,0,5.81,12.54,8.87,16.2s13.76,13.21,13.76,13.21l13.45,7.27Z" transform="translate(-246.72 -235.99)"/></svg>