<svg xmlns="http://www.w3.org/2000/svg" viewBox="0 0 354.67 376.03"><defs><style>.cls-1{fill:none;stroke:#006837;stroke-miterlimit:10;stroke-width:3px;}</style></defs><g id="Layer_2" data-name="Layer 2"><path class="cls-1" d="M398.32,533.38l11.62-3.67,18.34-10.39L438.37,516l22.32-9.47,13.45-8L485.76,490s1.22-.31,4.59-9.18-16.51-7-29.66-2.14-47.19,13.76-47.19,13.76-1.12,0-33.52-3.67-57.79,22.59-57.79,22.59l-76.43,56.29s-8.56,16.21,0,25.07,28.74,12.23,28.74,12.23,25.68-11,37.6-18l11.93-7s41.88-18,61.14-16.51l19.26,1.53,44.95,2.75s3.67,0,14.06-5.2l10.4-5.19" transform="translate(-240.46 -230.45)"/><path class="cls-1" d="M453.05,560l60.23-7,13.14,1.22,66.35-33.32s5.5-14.46-11.32-9.52l-16.81,4.93-6.42,3.06-21.17,4.58-2.33.51-13.19,2.86L476,524.51" transform="translate(-240.46 -230.45)"/><path class="cls-1" d="M537.12,521.92A184.52,184.52,0,0,0,566,489.81c14.22-19.95,14-25.91,14-25.91s-6.88-16.74-18.8,0l-11.92,16.74-2.76,2.52L509.84,510.3l-24.77,6.8" transform="translate(-240.46 -230.45)"/><path class="cls-1" d="M547,480.41l7.8-22.47s-9.4-16.51-18.12,3.44L528,481.33v2.52l-19.72,19.72" transform="translate(-240.46 -230.45)"/><path class="cls-1" d="M513.28,496a22.69,22.69,0,0,0,1.7-3.29c1.17-2.76,2.34-6.84,1.28-10.69-1.84-6.65-1.29-19.95-1.29-19.95s-12.93-6.88-13.62,9.4l-.69,16.28-13.75,18.34L462.6,513.2l-9.55-2.9" transform="translate(-240.46 -230.45)"/><line class="cls-1" x1="271.6" y1="269.3" x2="275.39" y2="259.9"/><line class="cls-1" x1="309.22" y1="242.2" x2="304.78" y2="253.67"/><line class="cls-1" x1="298.94" y1="289.47" x2="294.27" y2="293.96"/><path class="cls-1" d="M517.31,231.94s23.16,74.14,11.24,108.3S501,395,491.4,404l-9.63,8.94S470.08,372.11,457,362.48l-13.07-9.63s18.57-36.69,27.29-49.3l8.71-12.61s-27.52,31.18-34.62,44l-7.11,12.84s-23.85-13.07-38.52-18.34L385,324.2l17.2,1.83s30.27-50.37,72.69-72.23Z" transform="translate(-240.46 -230.45)"/><path class="cls-1" d="M414.36,360.88s46.32,53.43,51.59,74.75L471.22,457l-11,3.67s-1.42-26.21-12.15-48.84l-10.73-22.63" transform="translate(-240.46 -230.45)"/><line class="cls-1" x1="228.88" y1="149.61" x2="237.43" y2="170.48"/><path class="cls-1" d="M436,446.87l-23.85-12.78-14.37-12.91s-3.67-4.59-12.76-21.4S377.9,336,377.9,336s-9.78,50.34,2.14,68.69c0,0,5.81,12.54,8.87,16.2s13.76,13.21,13.76,13.21l13.45,7.27Z" transform="translate(-240.46 -230.45)"/></g></svg>