<svg id="Layer_1" data-name="Layer 1" xmlns="http://www.w3.org/2000/svg" viewBox="0 0 693.58 383.8"><defs><style>.cls-1{fill:none;stroke:#006837;stroke-miterlimit:10;stroke-width:3px;}.cls-2{fill:#006837;}</style></defs><path class="cls-1" d="M61.59,524.55s-12.38,27.51,8.26,35.08,29.58,0,29.58,0,44-16.59,51.59-15.86,47,7.84,64.89,6,31.19-11.92,31.19-11.92,5.5-4.59,16-3.67,31.64,2.29,49.53-3.67,59.61-22.78,53.5-29.5-13.76-2.76-13.76-2.76-22.93,5.51-27.21,6.73-25.38,7.64-29,6.73-27.83-3.06-27.83-3.06" transform="translate(-56.41 -180.7)"/><path class="cls-1" d="M311.76,506.89s22.7-23.85,27.74-31.41,17.66-20.64,12.39-25-12.16-1.37-12.16-1.37A28.28,28.28,0,0,0,329,458.74c-4.59,6.88-11,14.67-11,14.67s-12.2,12.39-16.79,14.45-15.59,9.86-23.16,11.92" transform="translate(-56.41 -180.7)"/><path class="cls-1" d="M175.32,516.29s20.87-14.35,39.22-18.41,36.68-4.29,44.94-13.92,10.77-15.59,6.88-19.72-16.28-6.42-21.1-5l-4.81,1.37s-12.84,4.13-17.2,6.19-11,8-21.33,8.49-23.16,1.6-29.12-.46-35.08-4.75-40.58-2.37S107.68,488.09,102,493.36s-19.72,11.47-30,21.33-9.32,9.86-9.32,9.86" transform="translate(-56.41 -180.7)"/><path class="cls-1" d="M266.82,372.29S323.63,319.71,318,263.45s-10.83-81.25-14.19-81.25-55.34,28.05-64.2,35.39-39.27,29.66-47.61,48-3.38,14.07-8,15.21-22.47-2.75-19.26-1.14,33.25,11,36.46,13.3,17.65,10.54,19.72,9.4,44.71-64,42.87-58.93-36.68,61.68-34.62,64.89,12.18,12.15,12.18,12.15,19.46,18.35,21.76,31.87S266.82,372.29,266.82,372.29Z" transform="translate(-56.41 -180.7)"/><path class="cls-1" d="M250.31,422.05s5-.46,5-2.75-6.65-38.06-24.08-61S198.71,317,198.48,319.1s23.62,29.42,31.88,51.39,8.54,22.21,11,33.45,2.27,18.34,4.33,18.11A27.13,27.13,0,0,1,250.31,422.05Z" transform="translate(-56.41 -180.7)"/><path class="cls-1" d="M289.59,481s-2.9,7.17-6.27,9.31L280,492.45" transform="translate(-56.41 -180.7)"/><path class="cls-1" d="M232.28,494.65s4.57,2.2,15.89,0S271.1,479.3,271.1,479.3s3.51-5.81,6.95-19.57,5.12-14.06,9.63-13.76,6,7,6,7,1.22,2.44,0,7.95-4.13,13.87-4.13,13.87l-1.91,8,10.09-9.64c5.05-4.81,7.11-12.84,7.11-12.84l3-6.19c3-6.19,11-13.3,19.95-12.15s-7.11,24.31-7.11,24.31" transform="translate(-56.41 -180.7)"/><line class="cls-1" x1="266.26" y1="282.61" x2="261.59" y2="292.72"/><line class="cls-1" x1="259.19" y1="322.12" x2="252.23" y2="328.92"/><line class="cls-1" x1="143.56" y1="111.57" x2="108.37" y2="98.96"/><line class="cls-1" x1="127.63" y1="100.11" x2="112.14" y2="98.96"/><line class="cls-1" x1="177.64" y1="115.76" x2="173.21" y2="125.2"/><path class="cls-2" d="M471.46,336.36c-.7,3.4-3.09,12.8-4.1,17.1h-52l-.9-1.6c13.9-19.2,27.8-39.1,41.9-59.4h-19.7c-8.9,0-10.4.6-12.5,3.7a36.15,36.15,0,0,0-3.8,8.4l-3-.1c.5-5.2,1.7-13.9,1.9-18.3h2.6c1.1,2.4,2.3,2.3,5.3,2.3h40.4l.81,1.6c-13.91,19.5-27.41,38.9-41.21,59.1,3.1.2,9.6.3,16.4.3,13.1,0,16.1-.5,18.9-3.6,2.1-2.1,4.3-6,6.1-10.2Z" transform="translate(-56.41 -180.7)"/><path class="cls-2" d="M530.66,337.56c-.6,2.6-3.3,12.9-4.3,15.9h-48.6v-2.8c9.3-.7,10-1.6,10-9.8v-39.5c0-8.9-1.1-9.4-8.6-10.1v-2.8h30.6c9.4,0,13.3-.1,14.5-.2.1,2.5.5,10,.9,15.3l-3,.5a33.31,33.31,0,0,0-3-7.6c-1.6-3.3-3.9-4-9.9-4h-9.5c-3.1,0-3.3.3-3.3,3.2v22.1h11.1c7.5,0,8-1.5,9.2-8.3h3.1v20.6h-3.1c-1.3-7.2-2.1-8.2-9.3-8.2h-11v19.9c0,7,2.2,7.6,7.2,7.7H513c6.1,0,7.1-.9,9.3-3.5,1.9-2.1,4-6.2,5.4-9.2Z" transform="translate(-56.41 -180.7)"/><path class="cls-2" d="M597,354.26c-1.3,0-2.4-.1-3.7-.2-7.3-.5-11.2-2.4-15.6-8.6-3.7-5.1-7.3-11.4-10.5-16.5-2-3.2-3.3-3.8-8.4-3.8h-3.5v15.7c0,8.5,1.1,9,9.1,9.8v2.8h-26.7v-2.8c8.3-.9,9-1.3,9-9.8V301c0-8.5-1.1-8.8-9-9.7v-2.8h25.5c7.3,0,12.2.9,16,3.4,4.1,2.6,6.8,7.1,6.8,13.2,0,8.6-5.5,14-12.9,17.2,1.8,3.1,6.1,9.8,9.1,14.3a91.82,91.82,0,0,0,7.9,10.3,14.39,14.39,0,0,0,7.3,4.6Zm-36.9-32.5c5.2,0,8.5-.8,11-2.9,3.9-2.9,5.5-6.9,5.5-12.3,0-10.7-7.1-14.6-14.8-14.6-2.9,0-4.6.4-5.3,1-.9.7-1.2,1.7-1.2,4.3v24.5Z" transform="translate(-56.41 -180.7)"/><path class="cls-2" d="M634.16,287.06c17.1,0,32.4,13.1,32.4,33,0,21.5-14.6,34.9-33,34.9-19.2,0-33.2-14.6-33.2-33.4C600.36,303.66,613.06,287.06,634.16,287.06Zm-2,3.7c-11.2,0-21.4,9.4-21.4,28.1s10.2,32.3,24.4,32.3c12.1,0,21.2-9,21.2-28.3C656.36,301.86,645.26,290.76,632.16,290.76Z" transform="translate(-56.41 -180.7)"/><path class="cls-2" d="M437.62,400.21c6,0,10.88,1.1,14.36,3.65,3.32,2.47,5.61,6.47,5.61,12.08,0,12.41-10.62,17.42-18.7,17.42a14.3,14.3,0,0,1-2.29-.17l-5.87-1.53v13.26c0,7.14.6,7.31,8.42,8.16v2.38H415.69v-2.38c7.31-.76,7.65-1.27,7.65-8.33V411c0-7.57-.94-7.74-7.65-8.42v-2.38Zm-6.89,28.48a15.48,15.48,0,0,0,6.21,1.1c5.69,0,12.75-2.89,12.75-13.6,0-9.35-6.12-13.09-13.26-13.09-2.47,0-4.25.42-4.76,1-.68.59-.94,1.61-.94,3.91Z" transform="translate(-56.41 -180.7)"/><path class="cls-2" d="M507.32,441.35c-.51,2.64-3.06,11.48-3.91,14.11H463.88v-2.38c7.74-.76,8.42-1.19,8.42-8.41V410.92c0-7.23-.85-7.65-7.65-8.33v-2.38h22.78v2.38c-6.8.68-7.74,1-7.74,8.33v34.6c0,5.18.68,6.37,5.53,6.46l6.71.08c4.34,0,5.61-.51,7.57-2.63a28.73,28.73,0,0,0,5.18-8.76Z" transform="translate(-56.41 -180.7)"/><path class="cls-2" d="M546.84,455.46v-2.38c5.53-.68,6.21-1.53,5-4.76s-2.81-7.56-4.59-12.92H528.91c-1.37,3.83-2.64,7.14-3.83,10.63-1.87,5.52-.68,6.2,6.29,7.05v2.38H511.73v-2.38c5.36-.68,6.72-1.27,9.69-8.92L539,399.53l2.72-.51c5.36,14.54,11.22,30.6,16.58,45.31,2.72,7.39,3.48,8.07,9.52,8.75v2.38Zm-8.5-45.3c-2.72,7.31-5.61,15-8.16,21.76h15.9Z" transform="translate(-56.41 -180.7)"/><path class="cls-2" d="M602.09,413.13c-1.44-5.61-3.82-11.14-11.81-11.14-6.64,0-8.93,4.85-8.93,9.27,0,5.87,3.74,8.84,10.8,12.5,10.2,5.27,14.62,9.18,14.62,17.25,0,8.93-7.74,15.73-18.7,15.73a35.41,35.41,0,0,1-13-2.81,117,117,0,0,1-2.3-12.75l2.64-.68c1.7,5.7,5.44,13.09,14.28,13.09,6.12,0,9.86-4.25,9.86-9.77,0-6.55-3.48-9.18-11-13.26-8.93-4.85-14-8.93-14-16.83,0-7.57,6.29-14.71,17.52-14.71a54.56,54.56,0,0,1,11.22,1.61c.34,3.06.68,6.47,1.36,12Z" transform="translate(-56.41 -180.7)"/><path class="cls-2" d="M658.7,413.56A31.8,31.8,0,0,0,656,406.5c-1.36-2.3-2.21-2.89-6.88-2.89h-8.51V445c0,6.63.68,7.56,8.76,8.07v2.38H624.61v-2.38c7.91-.51,8.59-1.36,8.59-8.07v-41.4h-7.74c-4.67,0-6,.51-7.48,3.06a38.42,38.42,0,0,0-2.8,6.89h-2.55c.51-5.19,1-10.55,1.27-15.31h2c1.27,2,2.21,2,4.59,2h33.66c2.38,0,3.06-.34,4.34-2h2c0,4,.34,10.12.76,15.05Z" transform="translate(-56.41 -180.7)"/><path class="cls-2" d="M668.22,455.46v-2.38c7-.76,7.65-1.1,7.65-8.33V411c0-7.32-.68-7.66-7.65-8.42v-2.38H691v2.38c-7.06.76-7.74,1.1-7.74,8.42v33.74c0,7.31.68,7.57,7.74,8.33v2.38Z" transform="translate(-56.41 -180.7)"/><path class="cls-2" d="M750,441.86a107.31,107.31,0,0,1-4.68,12.84,77.34,77.34,0,0,1-15.55,2c-20.32,0-30.69-13.52-30.69-28.39,0-17.34,13.18-29.33,32.22-29.33,7.31,0,13.26,1.53,16.06,2,.34,3.83.94,8.93,1.62,13.18l-2.64.6c-1.7-5.7-3.74-9.19-8.07-11a23.27,23.27,0,0,0-8.93-1.62c-14,0-21.42,10.38-21.42,24.4,0,16.41,8.5,26.95,22.27,26.95,8.67,0,12.92-4,17.26-12.5Z" transform="translate(-56.41 -180.7)"/><path class="cls-1" d="M152.47,307.1s-.92,36.08,20.18,59.31,48.92,33.94,42.19,32.72-46.47-17.64-55.64-36.64-12.84-38-13.45-47.13,2.75-32.86,3.66-29S152.47,307.1,152.47,307.1Z" transform="translate(-56.41 -180.7)"/></svg>